<?xml version="1.0" standalone="no"?>
<!DOCTYPE svg PUBLIC "-//W3C//DTD SVG 20010904//EN"
 "http://www.w3.org/TR/2001/REC-SVG-20010904/DTD/svg10.dtd">
<svg version="1.0" xmlns="http://www.w3.org/2000/svg"
 width="96.000000pt" height="96.000000pt" viewBox="0 0 96.000000 96.000000"
 preserveAspectRatio="xMidYMid meet">
<metadata>
Created by potrace 1.16, written by Peter Selinger 2001-2019
</metadata>
<g transform="translate(0.000000,96.000000) scale(0.100000,-0.100000)"
fill="#000000" stroke="none">
<path d="M343 861 c-105 -39 -180 -107 -231 -211 -25 -50 -27 -65 -27 -170 0
-107 2 -119 29 -175 38 -77 114 -153 191 -191 56 -27 68 -29 175 -29 107 0
119 2 175 29 77 38 153 114 191 191 27 56 29 68 29 175 0 107 -2 119 -29 175
-38 77 -114 153 -191 190 -52 26 -73 30 -160 33 -79 2 -111 -2 -152 -17z m280
-80 c61 -29 128 -97 159 -158 34 -69 34 -217 0 -286 -31 -61 -98 -128 -159
-159 -69 -34 -217 -34 -286 0 -61 31 -129 98 -158 159 -28 57 -37 174 -19 237
26 91 115 186 207 221 60 23 197 16 256 -14z"/>
<path d="M453 723 c-10 -4 -13 -43 -13 -154 l0 -149 109 0 c88 0 110 3 115 15
13 36 -3 45 -85 45 l-79 0 0 119 c0 105 -2 119 -17 123 -10 3 -24 3 -30 1z"/>
</g>
</svg>
