<?xml version="1.0" standalone="no"?>
<!DOCTYPE svg PUBLIC "-//W3C//DTD SVG 20010904//EN"
 "http://www.w3.org/TR/2001/REC-SVG-20010904/DTD/svg10.dtd">
<svg version="1.0" xmlns="http://www.w3.org/2000/svg"
 width="96.000000pt" height="96.000000pt" viewBox="0 0 96.000000 96.000000"
 preserveAspectRatio="xMidYMid meet">
<metadata>
Created by potrace 1.16, written by Peter Selinger 2001-2019
</metadata>
<g transform="translate(0.000000,96.000000) scale(0.100000,-0.100000)"
fill="#000000" stroke="none">
<path d="M0 555 l0 -405 165 0 165 0 0 25 0 25 -145 0 -145 0 0 360 0 360 440
0 440 0 0 -360 0 -360 -145 0 -145 0 0 -25 0 -25 165 0 165 0 0 405 0 405
-480 0 -480 0 0 -405z"/>
<path d="M190 765 l0 -25 290 0 290 0 0 25 0 25 -290 0 -290 0 0 -25z"/>
<path d="M190 675 l0 -25 290 0 290 0 0 25 0 25 -290 0 -290 0 0 -25z"/>
<path d="M190 575 l0 -25 290 0 290 0 0 25 0 25 -290 0 -290 0 0 -25z"/>
<path d="M448 496 c-15 -8 -37 -16 -49 -18 -12 -2 -27 -12 -33 -23 -5 -11 -18
-32 -29 -48 -15 -22 -17 -38 -11 -87 4 -33 13 -65 20 -71 10 -9 14 -42 14
-130 0 -113 1 -119 21 -119 11 0 38 10 60 23 l39 22 39 -22 c77 -44 79 -40 84
105 5 135 14 199 28 208 15 9 10 43 -10 63 -10 10 -21 30 -25 44 -4 18 -15 29
-34 33 -15 3 -39 12 -54 20 -32 17 -27 17 -60 0z m80 -66 c13 0 22 -6 22 -15
0 -8 10 -24 23 -35 21 -20 21 -22 4 -31 -14 -8 -17 -18 -12 -39 5 -24 2 -28
-19 -34 -15 -3 -26 -13 -26 -20 0 -21 -81 -16 -98 7 -7 9 -20 17 -29 17 -11 0
-14 6 -10 22 3 12 1 30 -5 41 -8 16 -7 23 6 32 9 7 16 22 16 34 0 17 6 21 29
21 17 0 31 6 35 16 6 16 8 16 24 0 10 -9 28 -16 40 -16z"/>
</g>
</svg>
