<svg xmlns="http://www.w3.org/2000/svg"  viewBox="0 0 64 64" width="64px" height="64px"><path d="M 28.978516 5 A 1.0001 1.0001 0 0 0 28.060547 5.65625 L 9.0605469 57.65625 A 1.0001 1.0001 0 0 0 10.576172 58.816406 L 22.785156 50.197266 L 20.060547 57.65625 A 1.0001 1.0001 0 0 0 21.576172 58.816406 L 49.326172 39.228516 A 1.0001 1.0001 0 1 0 48.173828 37.595703 L 23.037109 55.337891 L 25.65625 48.171875 L 38.951172 38.787109 A 1.0001 1.0001 0 1 0 37.798828 37.154297 L 26.861328 44.875 L 35.712891 20.648438 L 43.119141 34.472656 A 1.0001 1.0001 0 0 0 44 35 L 55 35 A 1.0001 1.0001 0 0 0 55.880859 33.527344 L 40.880859 5.5273438 A 1.0001 1.0001 0 0 0 39.060547 5.65625 L 35.367188 15.765625 L 29.880859 5.5273438 A 1.0001 1.0001 0 0 0 28.978516 5 z M 29.173828 8.4414062 L 34.447266 18.283203 L 23.990234 46.902344 L 12.037109 55.337891 L 29.173828 8.4414062 z M 40.173828 8.4414062 L 53.330078 33 L 44.599609 33 L 36.632812 18.130859 L 40.173828 8.4414062 z"/></svg>