<?xml version="1.0" standalone="no"?>
<!DOCTYPE svg PUBLIC "-//W3C//DTD SVG 20010904//EN"
 "http://www.w3.org/TR/2001/REC-SVG-20010904/DTD/svg10.dtd">
<svg version="1.0" xmlns="http://www.w3.org/2000/svg"
 width="100.000000pt" height="100.000000pt" viewBox="0 0 100.000000 100.000000"
 preserveAspectRatio="xMidYMid meet">
<metadata>
Created by potrace 1.16, written by Peter Selinger 2001-2019
</metadata>
<g transform="translate(0.000000,100.000000) scale(0.100000,-0.100000)"
fill="#000000" stroke="none">
<path d="M0 500 l0 -360 500 0 500 0 0 360 0 360 -500 0 -500 0 0 -360z m960
0 l0 -320 -460 0 -460 0 0 320 0 320 460 0 460 0 0 -320z"/>
<path d="M80 697 c1 -31 6 -35 210 -150 l210 -118 210 118 c204 115 209 119
210 150 l0 32 -32 -18 c-18 -11 -113 -64 -210 -120 l-177 -101 -178 101 c-98
55 -193 109 -210 120 l-33 18 0 -32z"/>
</g>
</svg>
