<?xml version="1.0" standalone="no"?>
<!DOCTYPE svg PUBLIC "-//W3C//DTD SVG 20010904//EN"
 "http://www.w3.org/TR/2001/REC-SVG-20010904/DTD/svg10.dtd">
<svg version="1.0" xmlns="http://www.w3.org/2000/svg"
 width="96.000000pt" height="96.000000pt" viewBox="0 0 96.000000 96.000000"
 preserveAspectRatio="xMidYMid meet">

<g transform="translate(0.000000,96.000000) scale(0.100000,-0.100000)"
fill="#000000" stroke="none">
<path d="M349 942 c-18 -9 -38 -27 -44 -39 -7 -17 -19 -23 -50 -25 -35 -3 -40
-6 -43 -30 -3 -26 -7 -28 -48 -28 -34 0 -51 -6 -69 -25 l-25 -24 0 -361 0
-361 25 -24 24 -25 269 0 c259 0 270 1 296 21 24 19 27 27 24 77 -2 45 -7 58
-20 60 -15 3 -18 -5 -18 -51 0 -41 -4 -56 -16 -61 -9 -3 -129 -6 -269 -6 -201
0 -255 3 -264 14 -8 9 -11 114 -9 367 l3 354 47 3 c44 3 47 2 50 -25 l3 -28
175 0 175 0 3 28 c3 27 6 28 50 25 l47 -3 5 -85 c4 -67 8 -85 20 -85 12 0 16
18 18 86 3 84 2 88 -24 108 -18 14 -41 21 -70 21 -39 0 -43 2 -46 28 -3 23 -8
28 -38 30 -24 3 -44 14 -65 37 -38 42 -71 49 -116 27z m65 -32 c43 -16 30 -30
-26 -30 l-53 1 24 19 c27 23 23 23 55 10z m116 -110 l0 -40 -140 0 -140 0 0
40 0 40 140 0 140 0 0 -40z"/>
<path d="M174 667 c-3 -8 -4 -43 -2 -78 l3 -64 75 0 75 0 0 75 0 75 -73 3
c-55 2 -74 -1 -78 -11z m116 -67 l0 -40 -40 0 -40 0 0 40 0 40 40 0 40 0 0
-40z"/>
<path d="M625 568 c-104 -36 -158 -147 -123 -249 46 -134 209 -179 314 -87 85
75 94 191 21 275 -56 63 -138 87 -212 61z m135 -48 c45 -23 67 -50 81 -102 30
-113 -82 -222 -193 -188 -111 33 -153 165 -81 251 50 59 124 74 193 39z"/>
<path d="M700 405 c-32 -33 -35 -34 -52 -18 -14 13 -21 14 -30 5 -10 -10 -5
-20 20 -44 l32 -33 51 52 c48 47 57 73 25 73 -6 0 -27 -16 -46 -35z"/>
<path d="M174 447 c-3 -8 -4 -43 -2 -78 l3 -64 75 0 75 0 0 75 0 75 -73 3
c-55 2 -74 -1 -78 -11z m116 -67 l0 -40 -40 0 -40 0 0 40 0 40 40 0 40 0 0
-40z"/>
<path d="M177 233 c-4 -3 -7 -37 -7 -74 0 -79 4 -83 101 -77 l54 3 3 78 3 77
-74 0 c-40 0 -77 -3 -80 -7z m113 -73 l0 -40 -40 0 -40 0 0 40 0 40 40 0 40 0
0 -40z"/>
</g>
</svg>
