<?xml version="1.0" standalone="no"?>
<!DOCTYPE svg PUBLIC "-//W3C//DTD SVG 20010904//EN"
 "http://www.w3.org/TR/2001/REC-SVG-20010904/DTD/svg10.dtd">
<svg version="1.0" xmlns="http://www.w3.org/2000/svg"
 width="100.000000pt" height="100.000000pt" viewBox="0 0 100.000000 100.000000"
 preserveAspectRatio="xMidYMid meet">

<g transform="translate(0.000000,100.000000) scale(0.100000,-0.100000)"
fill="#000000" stroke="none">
<path d="M355 925 c-85 -18 -127 -37 -175 -81 -53 -48 -69 -80 -86 -173 -42
-238 18 -427 151 -471 l35 -12 0 -84 c0 -107 11 -109 104 -15 l68 68 102 6
c141 9 199 23 249 60 50 38 92 116 108 202 14 75 6 243 -15 310 -20 65 -73
127 -133 155 -97 46 -285 62 -408 35z m346 -54 c133 -42 174 -118 174 -326 0
-92 -5 -134 -19 -179 -38 -116 -104 -151 -305 -163 l-115 -6 -55 -56 -56 -56
-3 45 c-4 79 -9 87 -58 106 -118 45 -167 198 -133 417 17 111 51 162 137 207
86 44 309 49 433 11z"/>
<path d="M473 794 c-7 -3 -13 -12 -13 -20 0 -10 13 -14 45 -14 49 0 107 -20
139 -48 30 -27 56 -93 56 -144 0 -36 4 -48 15 -48 19 0 29 41 22 91 -13 99
-101 180 -201 186 -28 1 -57 0 -63 -3z"/>
<path d="M269 731 c-35 -35 -36 -53 -8 -117 53 -119 137 -211 261 -287 78 -47
100 -53 139 -37 27 12 59 54 59 79 0 16 -100 91 -121 91 -11 0 -27 -9 -36 -20
-10 -11 -28 -20 -41 -20 -51 0 -142 89 -142 139 0 14 10 35 21 47 27 29 21 56
-26 112 -43 50 -66 52 -106 13z"/>
<path d="M486 731 c-12 -18 3 -31 36 -31 62 0 108 -45 117 -115 4 -26 11 -40
21 -40 11 0 15 12 14 48 0 50 -20 85 -66 120 -30 23 -112 35 -122 18z"/>
<path d="M507 673 c-14 -13 -6 -24 24 -35 21 -7 36 -22 45 -44 15 -36 31 -44
40 -19 19 48 -75 132 -109 98z"/>
</g>
</svg>
