<?xml version="1.0" standalone="no"?>
<!DOCTYPE svg PUBLIC "-//W3C//DTD SVG 20010904//EN"
 "http://www.w3.org/TR/2001/REC-SVG-20010904/DTD/svg10.dtd">
<svg version="1.0" xmlns="http://www.w3.org/2000/svg"
 width="96.000000pt" height="96.000000pt" viewBox="0 0 96.000000 96.000000"
 preserveAspectRatio="xMidYMid meet">

<g transform="translate(0.000000,96.000000) scale(0.100000,-0.100000)"
fill="#000000" stroke="none">
<path d="M395 861 c-52 -23 -99 -77 -119 -138 -9 -26 -23 -99 -31 -161 -8 -62
-19 -121 -25 -132 -22 -41 18 -70 110 -82 48 -6 27 -32 -55 -66 -126 -52 -175
-101 -175 -171 l0 -31 228 -2 227 -3 3 -38 3 -37 197 2 197 3 0 215 0 215
-106 3 c-123 3 -119 -1 -119 108 0 173 -54 271 -159 290 -20 4 -42 15 -49 26
-17 24 -74 24 -127 -1z m101 -35 c3 -7 24 -17 46 -20 94 -15 136 -73 144 -198
2 -40 6 -94 9 -120 l4 -48 -69 0 -70 0 0 -55 c0 -63 -13 -75 -82 -75 -52 0
-65 8 -69 39 -4 22 -12 26 -71 37 -84 16 -91 20 -77 45 5 11 15 61 20 112 18
165 51 242 119 278 41 22 88 25 96 5z m424 -606 l0 -180 -160 0 -160 0 0 180
0 180 160 0 160 0 0 -180z m-419 53 l59 5 0 -79 0 -79 -210 0 c-128 0 -210 4
-210 10 0 26 65 80 128 106 37 15 78 35 91 44 22 15 27 15 54 2 20 -10 47 -13
88 -9z"/>
<path d="M650 345 c0 -12 18 -15 105 -15 87 0 105 3 105 15 0 12 -18 15 -105
15 -87 0 -105 -3 -105 -15z"/>
<path d="M630 250 c0 -16 7 -20 30 -20 23 0 30 4 30 20 0 16 -7 20 -30 20 -23
0 -30 -4 -30 -20z"/>
<path d="M730 250 c0 -16 7 -20 30 -20 23 0 30 4 30 20 0 16 -7 20 -30 20 -23
0 -30 -4 -30 -20z"/>
<path d="M830 250 c0 -15 7 -20 25 -20 18 0 25 5 25 20 0 15 -7 20 -25 20 -18
0 -25 -5 -25 -20z"/>
<path d="M632 173 c2 -11 14 -19 31 -21 22 -3 27 1 27 17 0 17 -6 21 -31 21
-24 0 -30 -4 -27 -17z"/>
<path d="M730 169 c0 -16 5 -20 27 -17 17 2 29 10 31 21 3 13 -3 17 -27 17
-25 0 -31 -4 -31 -21z"/>
<path d="M830 170 c0 -15 7 -20 25 -20 18 0 25 5 25 20 0 15 -7 20 -25 20 -18
0 -25 -5 -25 -20z"/>
<path d="M637 113 c-17 -16 -5 -33 23 -33 23 0 30 4 30 20 0 14 -7 20 -23 20
-13 0 -27 -3 -30 -7z"/>
<path d="M730 101 c0 -17 6 -21 31 -21 24 0 30 4 27 18 -2 10 -14 18 -31 20
-22 3 -27 -1 -27 -17z"/>
<path d="M830 100 c0 -15 7 -20 25 -20 18 0 25 5 25 20 0 15 -7 20 -25 20 -18
0 -25 -5 -25 -20z"/>
</g>
</svg>
